<?xml version="1.0" encoding="utf-8"?>
<!-- Generator: Adobe Illustrator 19.1.0, SVG Export Plug-In . SVG Version: 6.00 Build 0)  -->
<svg version="1.1" id="Layer_1" xmlns="http://www.w3.org/2000/svg" xmlns:xlink="http://www.w3.org/1999/xlink" x="0px" y="0px"
	 viewBox="0 0 64 64" style="enable-background:new 0 0 64 64;" xml:space="preserve">
<style type="text/css">
	.st0{fill:#76C2AF;}
	.st1{opacity:0.2;fill:#231F20;}
	.st2{fill:#E0E0D1;}
	.st3{fill:#FFFFFF;}
</style>
<circle class="st0" cx="32" cy="32" r="32"/>
<path class="st1" d="M55,34c-1.1,0-4,2-4,2h-4v-4c0-1.1-0.9-2-2-2H15c-1.1,0-2,0.9-2,2v2h-2c-1.1,0-2,0.9-2,2v6c0,1.1,0.9,2,2,2h2v6
	c0,1.1,0.9,2,2,2h30c1.1,0,2-0.9,2-2v-4h4c0,0,2.9,2,4,2c1.1,0,2-0.9,2-2V36C57,34.9,56.1,34,55,34z"/>
<path class="st2" d="M47,48c0,1.1-0.9,2-2,2H15c-1.1,0-2-0.9-2-2V32c0-1.1,0.9-2,2-2h30c1.1,0,2,0.9,2,2V48z"/>
<path class="st2" d="M53,42c0,1.1-0.9,2-2,2H24c-1.1,0-2-0.9-2-2v-6c0-1.1,0.9-2,2-2h27c1.1,0,2,0.9,2,2V42z"/>
<path class="st2" d="M40,40c0,1.1-0.9,2-2,2H11c-1.1,0-2-0.9-2-2v-6c0-1.1,0.9-2,2-2h27c1.1,0,2,0.9,2,2V40z"/>
<path class="st2" d="M57,44c0,1.1-0.9,2-2,2l0,0c-1.1,0-4-2-4-2V34c0,0,2.9-2,4-2l0,0c1.1,0,2,0.9,2,2V44z"/>
<circle class="st1" cx="21" cy="22" r="10"/>
<circle class="st1" cx="39" cy="24" r="8"/>
<circle class="st3" cx="21" cy="20" r="10"/>
<circle class="st3" cx="39" cy="22" r="8"/>
</svg>
