<?xml version="1.0" encoding="UTF-8" standalone="no"?>
<!-- Created with Inkscape (http://www.inkscape.org/) -->

<svg
   xmlns:dc="http://purl.org/dc/elements/1.1/"
   xmlns:cc="http://creativecommons.org/ns#"
   xmlns:rdf="http://www.w3.org/1999/02/22-rdf-syntax-ns#"
   xmlns:svg="http://www.w3.org/2000/svg"
   xmlns="http://www.w3.org/2000/svg"
   xmlns:sodipodi="http://sodipodi.sourceforge.net/DTD/sodipodi-0.dtd"
   xmlns:inkscape="http://www.inkscape.org/namespaces/inkscape"
   width="156.54349mm"
   height="61.457787mm"
   viewBox="0 0 554.68165 217.76381"
   id="svg2"
   version="1.1"
   inkscape:version="0.91 r13725"
   sodipodi:docname="logo.svg">
  <defs
     id="defs4" />
  <sodipodi:namedview
     id="base"
     pagecolor="#ffffff"
     bordercolor="#666666"
     borderopacity="1.0"
     inkscape:pageopacity="0.0"
     inkscape:pageshadow="2"
     inkscape:zoom="0.7"
     inkscape:cx="108.98802"
     inkscape:cy="263.99284"
     inkscape:document-units="px"
     inkscape:current-layer="layer1"
     showgrid="false"
     inkscape:window-width="1366"
     inkscape:window-height="705"
     inkscape:window-x="0"
     inkscape:window-y="0"
     inkscape:window-maximized="1"
     fit-margin-top="0"
     fit-margin-left="0"
     fit-margin-right="0"
     fit-margin-bottom="0" />
  <metadata
     id="metadata7">
    <rdf:RDF>
      <cc:Work
         rdf:about="">
        <dc:format>image/svg+xml</dc:format>
        <dc:type
           rdf:resource="http://purl.org/dc/dcmitype/StillImage" />
        <dc:title></dc:title>
      </cc:Work>
    </rdf:RDF>
  </metadata>
  <g
     inkscape:label="Layer 1"
     inkscape:groupmode="layer"
     id="layer1"
     transform="translate(-112.27083,-382.02828)">
    <path
       style="fill:#4db6ac;fill-opacity:1;stroke:#4db6ac;stroke-width:0.32820949;stroke-opacity:1"
       d="m 182.42123,595.67309 c -4.30789,-2.19305 -8.30425,-5.28198 -11.0213,-8.51871 -2.08923,-2.48883 -4.45851,-7.02117 -5.31872,-10.17449 -0.57523,-2.10868 -1.04324,-9.71844 -0.68538,-11.14426 l 0.21616,-0.86126 1.38539,0.85152 c 3.15706,1.94044 9.49374,4.0975 12.03706,4.0975 l 0.88532,0 0.43185,-4.60321 c 0.23753,-2.53177 0.35172,-4.68337 0.25375,-4.78133 -0.098,-0.098 -2.00196,0.0165 -4.2311,0.25444 -5.41983,0.57842 -25.61012,0.58726 -29.65332,0.013 -7.10173,-1.0087 -8.00788,-1.29479 -10.4741,-3.30681 -9.38453,-7.65627 -16.18795,-16.66345 -20.18324,-26.72099 -1.29695,-3.2649 -2.89304,-9.91926 -3.30184,-13.76596 -2.23197,-21.00209 6.97692,-45.27609 27.47819,-72.43068 12.32222,-16.32118 29.49205,-34.24377 48.0999,-50.20872 5.69521,-4.88631 14.70299,-12.17311 15.05757,-12.18076 0.12345,-0.003 -0.28311,1.5023 -0.90345,3.34435 -1.12334,3.33568 -1.14599,3.52455 -5.60795,46.77174 l -4.48006,43.42253 1.06846,4.51101 c 5.57406,23.53357 18.43751,42.61867 37.10405,55.05014 4.9187,3.27573 10.02473,6.01865 14.70921,7.90165 l 3.4513,1.38732 -4.16313,1.35441 c -18.51202,6.0226 -39.7978,11.11928 -55.67998,13.33202 -2.07593,0.28922 -4.08736,0.58765 -4.46985,0.66316 -0.6302,0.12441 -0.73165,0.48413 -1.0814,3.8342 -0.21227,2.0333 -0.4734,4.34766 -0.58029,5.14304 l -0.19434,1.44614 3.44636,-0.22282 c 9.18914,-0.59409 18.70433,-3.40079 29.02007,-8.56005 l 5.29926,-2.65034 -0.82923,1.64479 c -1.22406,2.42793 -4.82918,8.77034 -6.90483,12.14749 -9.45212,15.37895 -18.19993,24.12976 -24.67207,24.6806 -1.70885,0.14546 -2.05506,0.0373 -5.50832,-1.72067 z M 193.92739,433.6779 c 1.58281,-15.36499 2.82307,-27.99111 2.75615,-28.05803 -0.19459,-0.19458 -2.76191,11.72815 -3.64713,16.93745 -1.57704,9.28029 -2.40125,17.64821 -2.53774,25.76444 -0.12111,7.2012 0.0139,13.29248 0.29457,13.29248 0.14098,0 1.55135,-12.57135 3.13415,-27.93634 z"
       id="path3401"
       inkscape:connector-curvature="0"
       inkscape:export-filename="/home/dsoni/dhow.svg"
       inkscape:export-xdpi="90"
       inkscape:export-ydpi="90" />
    <g
       style="font-style:normal;font-weight:normal;font-size:150px;line-height:125%;font-family:sans-serif;letter-spacing:0px;word-spacing:0px;fill:#4db6ac;fill-opacity:1;stroke:#4db6ac;stroke-width:1px;stroke-linecap:butt;stroke-linejoin:miter;stroke-opacity:1"
       id="text3391">
      <g
         id="g3412"
         style="stroke:#4db6ac;stroke-opacity:1;fill:#4db6ac;fill-opacity:1">
        <g
           id="g4223"
           style="fill:#4db6ac;fill-opacity:1;stroke:#4db6ac;stroke-opacity:1">
          <path
             d="m 271.84312,596.79207 q 7.2,0 10.65,-7.65 3.6,-7.65 3.6,-21.6 l 0,-87.3 13.5,0 0,87.3 q 0,11.7 -2.55,18.6 -2.4,7.05 -8.4,10.35 -6,3.3 -16.8,3.3 l 0,-3 z"
             style="font-style:normal;font-variant:normal;font-weight:normal;font-stretch:normal;font-size:150px;font-family:'El Messiri';-inkscape-font-specification:'El Messiri';fill:#4db6ac;fill-opacity:1;stroke:#4db6ac;stroke-opacity:1"
             id="path3398" />
          <path
             d="m 340.05093,580.74207 q -4.8,0 -9.75,-1.95 -4.95,-2.1 -8.55,-6.75 -3.45,-4.65 -3.45,-12.3 0,-11.4 10.5,-16.2 10.65,-4.8 27.75,-4.8 l 4.5,0 q 0,-14.7 -4.05,-20.1 -4.05,-5.4 -11.7,-5.4 -6.75,0 -10.8,2.85 -4.05,2.85 -5.7,9.9 l -6.75,0 q 0,-5.1 0.6,-7.95 0.6,-3 3.15,-5.55 2.7,-2.7 8.85,-3.9 6.3,-1.35 13.65,-1.35 12.15,0 19.2,6.6 7.05,6.45 7.05,24.9 l 0,40.5 -7.5,0 -5.25,-6.75 -0.75,0 q -2.7,3.45 -7.95,5.85 -5.25,2.4 -13.05,2.4 z m 6.75,-6.75 q 4.95,0 8.25,-2.4 3.3,-2.4 6,-6.6 l 0,-20.25 -4.5,0 q -11.1,0 -17.55,4.2 -6.45,4.05 -6.45,10.8 0,6.9 4.05,10.65 4.2,3.6 10.2,3.6 z"
             style="font-style:normal;font-variant:normal;font-weight:normal;font-stretch:normal;font-size:150px;font-family:'El Messiri';-inkscape-font-specification:'El Messiri';fill:#4db6ac;fill-opacity:1;stroke:#4db6ac;stroke-opacity:1"
             id="path3400" />
          <path
             d="m 395.92124,498.24207 q 0,-7.65 -2.1,-11.25 -2.1,-3.75 -8.4,-3.75 l -3,0 0,-3 13.5,0 q 5.55,0 8.25,1.5 2.85,1.35 4.05,5.1 1.2,3.75 1.2,11.4 l 0,81 -13.5,0 0,-81 z"
             style="font-style:normal;font-variant:normal;font-weight:normal;font-stretch:normal;font-size:150px;font-family:'El Messiri';-inkscape-font-specification:'El Messiri';fill:#4db6ac;fill-opacity:1;stroke:#4db6ac;stroke-opacity:1"
             id="path3402" />
          <path
             d="m 439.59937,499.74207 q -3.45,0 -6,-2.85 -2.4,-2.85 -2.4,-6.75 0,-3.15 1.8,-4.95 1.95,-1.8 5.1,-1.8 3.45,0 5.85,2.85 2.55,2.85 2.55,6.75 0,3.15 -1.95,4.95 -1.8,1.8 -4.95,1.8 z m -5.7,27 q 0,-7.65 -2.1,-11.25 -2.1,-3.75 -8.4,-3.75 l -3,0 0,-3 13.5,0 q 5.55,0 8.25,1.5 2.85,1.35 4.05,5.1 1.2,3.75 1.2,11.4 l 0,52.5 -13.5,0 0,-52.5 z"
             style="font-style:normal;font-variant:normal;font-weight:normal;font-stretch:normal;font-size:150px;font-family:'El Messiri';-inkscape-font-specification:'El Messiri';fill:#4db6ac;fill-opacity:1;stroke:#4db6ac;stroke-opacity:1"
             id="path3404" />
          <path
             d="m 502.31343,580.74207 q -7.65,0 -12.6,-2.4 -4.95,-2.4 -7.65,-5.85 l -0.75,0 -5.25,6.75 -7.5,0 0,-81 q 0,-7.65 -2.1,-11.25 -2.1,-3.75 -8.4,-3.75 l -3,0 0,-3 13.5,0 q 5.55,0 8.25,1.5 2.85,1.35 4.05,5.1 1.2,3.75 1.2,11.4 l 0,13.5 q 4.35,-2.1 8.7,-3.3 4.35,-1.2 10.05,-1.2 13.95,0 21.15,10.35 7.35,10.35 7.35,26.4 0,15.9 -7.05,26.4 -7.05,10.35 -19.95,10.35 z m -4.5,-6 q 8.55,0 12.9,-8.4 4.35,-8.55 4.35,-22.35 0,-13.95 -4.65,-22.35 -4.5,-8.4 -14.1,-8.4 -3.15,0 -6.45,1.2 -3.3,1.2 -7.8,3.3 l 0,48 q 2.7,4.05 6.3,6.6 3.75,2.4 9.45,2.4 z"
             style="font-style:normal;font-variant:normal;font-weight:normal;font-stretch:normal;font-size:150px;font-family:'El Messiri';-inkscape-font-specification:'El Messiri';fill:#4db6ac;fill-opacity:1;stroke:#4db6ac;stroke-opacity:1"
             id="path3406" />
          <path
             d="m 572.72905,580.74207 q -11.25,0 -18.45,-6 -7.05,-6 -7.05,-21 l 0,-27 q 0,-7.65 -2.1,-11.25 -2.1,-3.75 -8.4,-3.75 l -1.5,0 0,-3 12,0 q 5.55,0 8.25,1.5 2.85,1.35 4.05,5.1 1.2,3.75 1.2,11.4 l 0,27 q 0,10.5 4.65,15.45 4.8,4.8 11.85,4.8 7.95,0 15,-7.95 l 0,-57.3 13.5,0 0,70.5 -7.5,0 -5.25,-6 -0.75,0 q -3.15,3.15 -8.25,5.4 -4.95,2.1 -11.25,2.1 z"
             style="font-style:normal;font-variant:normal;font-weight:normal;font-stretch:normal;font-size:150px;font-family:'El Messiri';-inkscape-font-specification:'El Messiri';fill:#4db6ac;fill-opacity:1;stroke:#4db6ac;stroke-opacity:1"
             id="path3408" />
          <path
             d="m 648.20249,580.74207 q -8.4,0 -13.2,-4.8 -4.8,-4.8 -4.8,-14.7 l 0,-46.5 -10.5,0 0,-6 10.5,0 0,-13.5 7.5,-9 6,0 0,22.5 18,0 0,6 -18,0 0,46.5 q 0,13.5 10.5,13.5 3.6,0 6,-0.75 2.55,-0.75 5.25,-2.25 l 1.5,3 q -3.45,2.55 -7.65,4.35 -4.2,1.65 -11.1,1.65 z"
             style="font-style:normal;font-variant:normal;font-weight:normal;font-stretch:normal;font-size:150px;font-family:'El Messiri';-inkscape-font-specification:'El Messiri';fill:#4db6ac;fill-opacity:1;stroke:#4db6ac;stroke-opacity:1"
             id="path3410" />
          <path
             transform="translate(112.27083,382.02828)"
             inkscape:connector-curvature="0"
             id="path4221"
             d="m 162.43357,215.22802 c 4.72159,-1.90774 8.77406,-8.06334 10.44851,-15.87104 0.91512,-4.26706 1.53452,-25.86738 1.53452,-53.51347 l 0,-46.358251 6.52765,0 6.52766,0 -0.45623,49.642861 c -0.42528,46.27507 -0.65006,50.02923 -3.31337,55.33829 -3.77748,7.53004 -10.8869,12.18764 -18.42555,12.07115 -4.68859,-0.0724 -5.25701,-0.33425 -2.84319,-1.30954 z"
             style="opacity:0;fill:#4db6ac;fill-opacity:1;stroke:#4db6ac;stroke-width:1.42857146px;stroke-opacity:1" />
        </g>
      </g>
    </g>
    <text
       xml:space="preserve"
       style="font-style:normal;font-weight:normal;font-size:40px;line-height:125%;font-family:sans-serif;letter-spacing:0px;word-spacing:0px;fill:#4db6ac;fill-opacity:1;stroke:#4db6ac;stroke-width:1px;stroke-linecap:butt;stroke-linejoin:miter;stroke-opacity:1;"
       x="404.06104"
       y="519.00165"
       id="text3346"
       sodipodi:linespacing="125%"><tspan
         sodipodi:role="line"
         id="tspan3348"
         x="404.06104"
         y="519.00165" /></text>
    <text
       xml:space="preserve"
       style="font-style:normal;font-weight:normal;font-size:40px;line-height:125%;font-family:sans-serif;letter-spacing:0px;word-spacing:0px;fill:#4db6ac;fill-opacity:1;stroke:#4db6ac;stroke-width:1px;stroke-linecap:butt;stroke-linejoin:miter;stroke-opacity:1;"
       x="450.52802"
       y="201.81377"
       id="text3350"
       sodipodi:linespacing="125%"><tspan
         sodipodi:role="line"
         id="tspan3352"
         x="450.52802"
         y="201.81377"> </tspan></text>
  </g>
</svg>
